<?xml version="1.0" encoding="UTF-8"?>
<svg id="Capa_1" data-name="Capa 1" xmlns="http://www.w3.org/2000/svg" viewBox="0 0 160 160">
  <defs>
    <style>
      .cls-1 {
        fill: #f9f9f7;
      }
    </style>
  </defs>
  <path class="cls-1" d="M55.06,81.85c0,.07.06.15-.01.32-2.47,6.06-7.13,11.53-13.35,11.53-5.6,0-8.26-3.29-8.26-8.13,0-8,6.91-19.25,18.27-19.25,2.43,0,3.92.33,4.64.33,1.25,0,1.68-.3,2.07-.3.43,0,.3.36.2.72-.49,1.55-1.71,4.9-2.3,8.59-.07.43-.1.62-.36.62-.2,0-.26-.16-.26-.53.13-2.11.07-4.15-.46-5.73-.59-1.88-1.78-3.06-3.69-3.06-5.73,0-10.66,11.32-10.66,17.28,0,4.54,1.65,6.52,4.28,6.52,3.59,0,6.88-3.41,9.21-8.68"/>
  <path class="cls-1" d="M58.28,78.45c-1.12-.03-2.57,2.43-3.75,4.9-.2.4-.3.53-.46.49-.23,0-.36-.2-.13-.76.86-2.11,3.62-8.46,8-8.29,2.63.1,3.39,1.45,3.36,2.96-.03,1.12-.56,2.01-1.58,4.61l-1.45,3.72c-.16.43.46.43.62.03,3.39-8.16,5.1-11.26,8.23-11.26,1.55,0,2.21.89,2.21,1.98,0,1.65-1.19,3.13-2.73,3.13-.86,0-1.32-.46-1.98-.46-.89,0-3.09,1.22-5.82,7.83-.76,2.07-.53,3.55-.56,4.11-.03,1.38-1.88,2.24-3.39,2.24-2.3,0-4.05-1.09-2.93-4.38l2.27-7.24c.92-2.43.82-3.59.1-3.62Z"/>
  <path class="cls-1" d="M70.18,87.38c0-6.25,5.23-12.57,10.63-12.57,2.73,0,4.77,1.48,4.77,3.72,0,2.04-2.86,3.85-7.8,4.71-.72.1-1.41.79-1.55,1.48-.1.82-.16,1.55-.16,2.21,0,2.43,1.48,3.32,2.8,3.32,1.81,0,3.95-1.88,5.27-5.36.26-.69.76-.49.63.03-.49,2.01-3.69,8.75-8.69,8.75-3.39,0-5.89-2.11-5.89-6.29ZM77.79,82.84c2.93-.92,3.88-2.6,3.88-4.61,0-1.78-.46-2.47-1.15-2.47-1.55,0-2.9,2.96-3.72,6.12-.16.69.26,1.15.99.95Z"/>
  <path class="cls-1" d="M105.7,83.2c-.99,2.1-4.12,10.5-8.5,10.44-2.63-.07-3.46-1.38-3.42-2.9,0-1.12.63-2.01,1.65-4.57l.26-.63c.13-.4,0-.53-.2-.53-.16,0-.33.1-.49.43-1.78,3.62-3.85,8.13-7.31,8.13-2.4,0-3.88-2.2-3.88-5.3,0-6.32,5.4-13.43,10.37-13.43,2.17,0,2.93,1.58,3.26,3.29.1.72.36.76.59.07l.33-.89c.26-.69.62-1.05,1.58-1.05,2.07,0,3.23-1.74,4.24-1.74.43,0,.92.2.69.79-1.12,2.8-2.3,5.66-3.23,8.56l-.86,2.4c-.85,2.47-.72,3.62,0,3.62,1.09.03,3.2-4.47,4.32-6.97M90.65,89.52c1.51,0,4.05-3.65,4.87-6.32.76-2.5.82-3.88.82-4.48,0-1.58-.36-2.54-1.22-2.54-2.34,0-5.46,7.54-5.46,11.36,0,1.32.33,1.97.99,1.97Z"/>
  <path class="cls-1" d="M109.4,78.4c-1.12-.03-2.57,2.43-3.75,4.9-.2.4-.3.53-.46.49-.23,0-.36-.2-.13-.76.86-2.11,3.62-8.46,8-8.29,2.63.1,3.39,1.45,3.36,2.96-.03,1.12-.56,2.01-1.58,4.61l-1.45,3.72c-.16.43.46.43.62.03,3.39-8.16,5.1-11.26,8.23-11.26,1.55,0,2.21.89,2.21,1.98,0,1.65-1.19,3.13-2.73,3.13-.86,0-1.32-.46-1.98-.46-.89,0-3.09,1.22-5.82,7.83-.76,2.07-.53,3.55-.56,4.11-.03,1.38-1.88,2.24-3.39,2.24-2.3,0-4.05-1.09-2.93-4.38l2.27-7.24c.92-2.43.82-3.59.1-3.62Z"/>
  <path class="cls-1" d="M137.67,84.56c.2,0,.23.13.2.45-.59,5.78-2.17,8.46-6.16,8.46-3.19,0-5.1-1.66-5.1-6.54v-9.16c0-.77-.43-1.18-1.22-1.18h-1.45c-.4,0-.56-.09-.56-.29,0-.25.16-.35.56-.35,2.93,0,6.88-1.53,7.5-4.79.16-.61.26-.8.56-.8s.36.16.36.77v3.61c0,.96.82,1.28,1.51,1.28,1.02,0,2.21-.38,2.73-.38.39,0,.59.13.59.45,0,.35-.2.51-.69.51h-2.76c-.79,0-1.22.42-1.22,1.18v8.91c0,2.62.89,3.83,1.98,3.83,1.22,0,2.3-1.98,2.86-5.49.03-.32.13-.45.3-.45Z"/>
  <path class="cls-1" d="M137.2,84.77c0-4.98,3.16-9.58,8.03-9.58,4.01,0,6.71,2.39,6.71,5.04,0,1.76-.39,2.17-3.06,2.17h-4.44c-.92,0-1.45.48-1.45,1.31v.89c0,3.13,1.55,5.11,4.21,5.11,1.45,0,3.49-.89,4.48-3.93.13-.35.2-.45.36-.45.2,0,.2.13.13.48-1.15,5.46-3.49,7.69-7.5,7.69-4.38,0-7.47-2.97-7.47-8.75ZM144.31,82.02h.59c.99,0,1.45-.64,1.45-1.98,0-2.52-.29-3.96-1.51-3.96-1.15,0-1.65,1.25-1.81,4.53,0,.89.46,1.4,1.28,1.4Z"/>
  <g>
    <path class="cls-1" d="M8.18,93.56c-.26,0-.4-.07-.4-.27s.13-.27.36-.27c2.04,0,3.36-.44,3.36-3.03v-20.12c0-2.59-1.32-3.03-3.36-3.03-.23,0-.36-.07-.36-.27.03-.2.13-.27.4-.27,1.22,0,2.86.17,3.95.17h4.64c5.2,0,7.7,2.56,7.7,6.69s-2.21,5.92-5.53,6.63c-.59.13-.82.4-.82.71,0,.2.1.4.26.61,1.61,2.56,3.16,5.18,4.74,8.31,1.18,2.39,2.21,3.6,4.28,3.6.26,0,.36.07.36.27,0,.17-.13.27-.4.27-4.15-.03-4.87-.64-6.29-3.5l-4.44-8.81c-.49-1.01-.89-1.18-1.65-1.18-1.22,0-1.45.24-1.45,1.58l-.03,8.34c0,2.59,1.35,3.03,3.36,3.03.26,0,.36.07.36.27s-.1.27-.4.27c-1.18,0-2.83-.17-3.92-.17h-.79c-1.09,0-2.73.17-3.95.17ZM15.95,80c3.75,0,6.38-2.01,6.38-6.45,0-3.42-2.14-5.99-6.25-5.99-1.81,0-2.54.3-2.54,2.01v8.33c0,1.58,1.05,2.11,2.4,2.11Z"/>
    <path class="cls-1" d="M33.6,86.15c-1.18,4.87-3.36,7.4-5.99,7.4-3.39,0-5.36-3.16-5.36-8.62s2.34-9.77,6.06-9.77c2.6,0,4.38,2.4,4.38,5.1,0,1.84-.4,2.53-2.63,2.53h-4.64c-.76,0-1.38.56-1.41,1.32v.56c0,4.11,1.61,7.14,4.38,7.14,1.48,0,3.93-1.97,5.21-6.51M25.44,82.33h3.09c1.78,0,2.14-.76,2.14-2.11,0-2.17-.89-4.47-2.8-4.47-1.78,0-3.29,2.34-3.69,5.23-.03.76.49,1.35,1.25,1.35Z"/>
  </g>
</svg>